<svg width="32" height="32" viewBox="0 0 32 32" fill="none" xmlns="http://www.w3.org/2000/svg">
<g opacity="0.7">
<path d="M2.66683 12.6666C2.31321 12.6666 1.97407 12.8071 1.72402 13.0572C1.47397 13.3072 1.3335 13.6463 1.3335 14V30.6666C1.3335 31.0202 1.47397 31.3594 1.72402 31.6094C1.97407 31.8595 2.31321 32 2.66683 32C3.02045 32 3.35959 31.8595 3.60964 31.6094C3.85969 31.3594 4.00016 31.0202 4.00016 30.6666V14C4.00016 13.6463 3.85969 13.3072 3.60964 13.0572C3.35959 12.8071 3.02045 12.6666 2.66683 12.6666Z" fill="#2F80ED"/>
<path d="M29.3333 12.6666C28.9797 12.6666 28.6406 12.8071 28.3905 13.0572C28.1405 13.3072 28 13.6463 28 14V30.6666C28 31.0202 28.1405 31.3594 28.3905 31.6094C28.6406 31.8595 28.9797 32 29.3333 32C29.687 32 30.0261 31.8595 30.2761 31.6094C30.5262 31.3594 30.6667 31.0202 30.6667 30.6666V14C30.6667 13.6463 30.5262 13.3072 30.2761 13.0572C30.0261 12.8071 29.687 12.6666 29.3333 12.6666Z" fill="#2F80ED"/>
<path d="M20.0002 14.6666H12.0002C11.632 14.6666 11.3335 14.9651 11.3335 15.3333V22C11.3335 22.3681 11.632 22.6666 12.0002 22.6666H20.0002C20.3684 22.6666 20.6668 22.3681 20.6668 22V15.3333C20.6668 14.9651 20.3684 14.6666 20.0002 14.6666Z" fill="#2F80ED"/>
<path d="M25.3332 24H17.3332C16.965 24 16.6665 24.2985 16.6665 24.6667V31.3333C16.6665 31.7015 16.965 32 17.3332 32H25.3332C25.7014 32 25.9998 31.7015 25.9998 31.3333V24.6667C25.9998 24.2985 25.7014 24 25.3332 24Z" fill="#2F80ED"/>
<path d="M14.6667 24H6.66667C6.29848 24 6 24.2985 6 24.6667V31.3333C6 31.7015 6.29848 32 6.66667 32H14.6667C15.0349 32 15.3333 31.7015 15.3333 31.3333V24.6667C15.3333 24.2985 15.0349 24 14.6667 24Z" fill="#2F80ED"/>
<path d="M31.54 4.72133C30.276 3.61333 25.416 0 16 0C6.58401 0 1.72401 3.61333 0.460008 4.72133C0.315041 4.84699 0.198899 5.00246 0.119511 5.17711C0.0401241 5.35176 -0.000638245 5.54149 7.55523e-06 5.73333V10.0747C0.00247539 10.434 0.147301 10.7776 0.402736 11.0303C0.658172 11.283 1.00338 11.4241 1.36267 11.4227H30.6373C30.9966 11.4241 31.3418 11.283 31.5973 11.0303C31.8527 10.7776 31.9975 10.434 32 10.0747V5.73333C32.0007 5.54149 31.9599 5.35176 31.8805 5.17711C31.8011 5.00246 31.685 4.84699 31.54 4.72133Z" fill="#2F80ED"/>
</g>
</svg>
