<svg width="18" height="18" viewBox="0 0 18 18" fill="none" xmlns="http://www.w3.org/2000/svg">
<path d="M16.875 10.5H14.25C14.0511 10.5 13.8603 10.579 13.7197 10.7197C13.579 10.8603 13.5 11.0511 13.5 11.25C13.5 11.4489 13.421 11.6397 13.2803 11.7803C13.1397 11.921 12.9489 12 12.75 12H5.25C5.05109 12 4.86032 11.921 4.71967 11.7803C4.57902 11.6397 4.5 11.4489 4.5 11.25C4.5 11.0511 4.42098 10.8603 4.28033 10.7197C4.13968 10.579 3.94891 10.5 3.75 10.5H1.125C0.826631 10.5 0.540483 10.6185 0.329505 10.8295C0.118526 11.0405 0 11.3266 0 11.625L0 16.5C0 16.8978 0.158035 17.2794 0.43934 17.5607C0.720644 17.842 1.10218 18 1.5 18H16.5C16.8978 18 17.2794 17.842 17.5607 17.5607C17.842 17.2794 18 16.8978 18 16.5V11.625C18 11.3266 17.8815 11.0405 17.6705 10.8295C17.4595 10.6185 17.1734 10.5 16.875 10.5Z" fill="#8692A6"/>
<path d="M7.125 9C6.92609 9 6.73532 9.07902 6.59467 9.21967C6.45402 9.36032 6.375 9.55109 6.375 9.75C6.375 9.94891 6.45402 10.1397 6.59467 10.2803C6.73532 10.421 6.92609 10.5 7.125 10.5H10.875C11.0739 10.5 11.2647 10.421 11.4053 10.2803C11.546 10.1397 11.625 9.94891 11.625 9.75C11.625 9.55109 11.546 9.36032 11.4053 9.21967C11.2647 9.07902 11.0739 9 10.875 9H7.125Z" fill="#8692A6"/>
<path d="M1.875 8.25C2.07391 8.25 2.26468 8.17098 2.40533 8.03033C2.54598 7.88968 2.625 7.69891 2.625 7.5H15.375C15.375 7.69891 15.454 7.88968 15.5947 8.03033C15.7353 8.17098 15.9261 8.25 16.125 8.25C16.3239 8.25 16.5147 8.17098 16.6553 8.03033C16.796 7.88968 16.875 7.69891 16.875 7.5C16.875 7.10218 16.717 6.72064 16.4357 6.43934C16.1544 6.15804 15.7728 6 15.375 6H2.625C2.22718 6 1.84564 6.15804 1.56434 6.43934C1.28304 6.72064 1.125 7.10218 1.125 7.5C1.125 7.69891 1.20402 7.88968 1.34467 8.03033C1.48532 8.17098 1.67609 8.25 1.875 8.25Z" fill="#8692A6"/>
<path d="M1.875 5.25C2.07391 5.25 2.26468 5.17098 2.40533 5.03033C2.54598 4.88968 2.625 4.69891 2.625 4.5H15.375C15.375 4.69891 15.454 4.88968 15.5947 5.03033C15.7353 5.17098 15.9261 5.25 16.125 5.25C16.3239 5.25 16.5147 5.17098 16.6553 5.03033C16.796 4.88968 16.875 4.69891 16.875 4.5C16.875 4.10218 16.717 3.72064 16.4357 3.43934C16.1544 3.15804 15.7728 3 15.375 3H2.625C2.22718 3 1.84564 3.15804 1.56434 3.43934C1.28304 3.72064 1.125 4.10218 1.125 4.5C1.125 4.69891 1.20402 4.88968 1.34467 5.03033C1.48532 5.17098 1.67609 5.25 1.875 5.25Z" fill="#8692A6"/>
<path d="M1.875 2.25C2.07391 2.25 2.26468 2.17098 2.40533 2.03033C2.54598 1.88968 2.625 1.69891 2.625 1.5H15.375C15.375 1.69891 15.454 1.88968 15.5947 2.03033C15.7353 2.17098 15.9261 2.25 16.125 2.25C16.3239 2.25 16.5147 2.17098 16.6553 2.03033C16.796 1.88968 16.875 1.69891 16.875 1.5C16.875 1.10218 16.717 0.720644 16.4357 0.43934C16.1544 0.158035 15.7728 0 15.375 0L2.625 0C2.22718 0 1.84564 0.158035 1.56434 0.43934C1.28304 0.720644 1.125 1.10218 1.125 1.5C1.125 1.69891 1.20402 1.88968 1.34467 2.03033C1.48532 2.17098 1.67609 2.25 1.875 2.25Z" fill="#8692A6"/>
</svg>
